<svg xmlns="http://www.w3.org/2000/svg" viewBox="0 0 200 160" fill="none">
  <rect x="30" y="55" width="140" height="100" rx="12" fill="#F2F2F7"/>
  <rect x="50" y="80" width="100" height="8" rx="4" fill="#E5E5EA"/>
  <rect x="65" y="96" width="70" height="6" rx="3" fill="#E5E5EA"/>
  <rect x="78" y="108" width="44" height="6" rx="3" fill="#E5E5EA"/>
  <path d="M100 15c-19 0-35 16-35 35c0 8 2 16 7 22l14-14c-4-5-6-12-6-19c0-17 14-31 31-31c8 0 15 3 21 8l14-13c-9-9-21-14-35-14z" fill="#E8F2FF"/>
  <path d="M86 54l14-14 14 14-14 14z" fill="#007AFF" opacity="0.6"/>
  <circle cx="100" cy="47" r="4" fill="#007AFF"/>
</svg>